:SAMPLES-PER-SECOND 30
:FULLY-SPECIFIED
:DEGREES
2098
root  41.5388 39.3815 -25.856 0.399414 12.7184 5.46466
RightUpLeg  9.69089 11.4129 -0.894371
RightLeg  21.4357 18.4364 7.68702
RightFoot  -13.9884 -0.367937 -11.9709
RightToes  -4.65663e-010 0 -3.6325e-017
Spine  -1.74127 -0.270339 -2.27782
Spine1  7.78863 -0.505496 0.789158
HEad  23.6364 -19.6042 -0.167875
LeftShoulder1  6.282 -8.82415 -44.3446
LeftArm  -10.531 28.0939 -23.1784
LeftForeArm  20.0746 -21.4794 -3.76285
LeftHand  -0.244104 0.0205437 5.32207
RightShoulder  5.4844 8.57715 39.2954
RightArm  -4.72524 -21.7992 25.1204
RightForeArm  6.04581 9.21155 7.09315
RightHand  -0.860786 0.806621 -16.1845
LeftUpLeg  -14.6316 1.43566 -1.45213
LeftLeg  9.30563 -6.72046 -3.05947
LeftFoot  5.38661 0.733451 -5.21105
LeftToes  4.18335e-011 1.59304e-011 3.38507e-012
2099
root  42.0027 39.4786 -25.0919 0.104248 8.54461 5.52625
RightUpLeg  7.00693 11.2592 -3.2463
RightLeg  27.7271 21.6403 11.7448
RightFoot  -10.9138 -0.0771504 -5.29515
RightToes  -4.65663e-010 0 -3.6325e-017
Spine  -1.81125 -0.329933 -4.40311
Spine1  7.29773 -0.725216 1.24886
HEad  25.4687 -20.7982 -0.36762
LeftShoulder1  6.24419 -8.84179 -43.9998
LeftArm  -10.0976 28.1183 -23.1813
LeftForeArm  18.9097 -19.3876 -3.82095
LeftHand  -0.244104 0.0205437 5.32207
RightShoulder  5.39614 8.39605 39.2453
RightArm  -5.73175 -22.1947 25.6546
RightForeArm  6.59597 8.80768 6.87215
RightHand  -0.81484 0.535075 -16.0105
LeftUpLeg  -13.5395 3.22299 -1.27391
LeftLeg  11.1907 -4.12712 -2.87732
LeftFoot  2.34383 0.592254 -5.09156
LeftToes  4.18335e-011 1.59304e-011 3.38507e-012
2100
root  42.4225 39.5238 -24.4655 -0.389282 3.84737 5.33282
RightUpLeg  2.3256 11.0914 -5.7602
RightLeg  36.494 23.8287 17.6173
RightFoot  -5.50247 -0.450412 7.13957
RightToes  -4.65663e-010 0 -3.6325e-017
Spine  -1.06376 -0.286948 -5.32516
Spine1  6.61332 -0.689551 0.565729
HEad  26.393 -21.0118 -0.655368
LeftShoulder1  6.26595 -9.0096 -43.5401
LeftArm  -9.87375 27.7481 -23.2085
LeftForeArm  18.4448 -17.4195 -4.00483
LeftHand  -0.244104 0.0205437 5.32207
RightShoulder  5.2476 8.21837 38.692
RightArm  -6.23919 -22.6186 27.3325
RightForeArm  5.16978 10.0676 6.75139
RightHand  -0.744263 0.0980959 -15.765
LeftUpLeg  -12.0321 5.31198 -0.4827
LeftLeg  12.406 -1.76046 -3.30252
LeftFoot  -0.23011 0.582961 -5.96174
LeftToes  4.18335e-011 1.59304e-011 3.38507e-012
2101
root  42.814 39.5032 -23.9554 -1.19141 -1.10919 5.28461
RightUpLeg  -2.90186 11.0658 -8.04917
RightLeg  44.7037 22.272 21.6347
RightFoot  0.501377 -2.0431 19.8019
RightToes  -4.65663e-010 0 -3.6325e-017
Spine  0.616336 -0.283343 -6.1177
Spine1  5.92887 -0.750469 -0.549522
HEad  25.7774 -20.1235 -0.970975
LeftShoulder1  6.39448 -9.26873 -43.5333
LeftArm  -9.41307 27.3554 -22.8272
LeftForeArm  18.7163 -16.8142 -4.1171
LeftHand  -0.244104 0.0205437 5.32207
RightShoulder  5.13763 8.14835 38.045
RightArm  -3.93241 -22.712 29.037
RightForeArm  1.73935 13.2531 6.70244
RightHand  -0.695093 -0.152891 -15.4193
LeftUpLeg  -10.3174 6.26833 0.292997
LeftLeg  13.4761 1.89994 -3.74779
LeftFoot  -2.12893 0.475236 -5.72259
LeftToes  4.18335e-011 1.59304e-011 3.38507e-012
2102
root  43.1929 39.5538 -23.4358 -2.07068 -5.28103 5.15387
RightUpLeg  -7.49613 9.91957 -9.49656
RightLeg  50.1738 17.2415 20.5723
RightFoot  3.86016 -3.23286 24.2768
RightToes  -4.65663e-010 0 -3.6325e-017
Spine  2.41057 -0.650724 -7.24831
Spine1  5.30802 -1.38979 -0.362949
HEad  24.3082 -18.5946 -1.26779
LeftShoulder1  6.60211 -9.54729 -44.0156
LeftArm  -8.35472 26.9012 -22.0348
LeftForeArm  19.5069 -17.3003 -4.12686
LeftHand  -0.244104 0.0205437 5.32207
RightShoulder  5.08357 8.11865 37.7051
RightArm  0.937009 -22.3409 30.2098
RightForeArm  -1.41958 17.3014 6.10555
RightHand  -0.699135 -0.00522803 -15.096
LeftUpLeg  -8.14553 6.63621 0.864141
LeftLeg  13.6108 5.67327 -3.82483
LeftFoot  -3.64424 0.364853 -5.10759
LeftToes  4.18335e-011 1.59304e-011 3.38507e-012
2103
root  43.5582 39.7492 -22.8418 -2.61707 -8.54111 4.50537
RightUpLeg  -11.3232 7.16398 -9.59639
RightLeg  52.8768 11.1979 15.1065
RightFoot  3.53067 -2.64433 20.1373
RightToes  -4.65663e-010 0 -3.6325e-017
Spine  3.51306 -1.24242 -7.83425
Spine1  4.88548 -2.26537 1.05868
HEad  23.0907 -17.1766 -1.45167
LeftShoulder1  6.79404 -9.80492 -44.4421
LeftArm  -7.47027 25.9611 -21.2839
LeftForeArm  20.5304 -17.6236 -4.12518
LeftHand  -0.244104 0.0205437 5.32207
RightShoulder  5.05353 8.05174 37.6986
RightArm  4.41855 -21.9729 31.1033
RightForeArm  -1.58581 20.6449 5.25748
RightHand  -0.72181 0.145367 -15.1694
LeftUpLeg  -5.36257 7.11285 1.66688
LeftLeg  12.0318 8.35352 -4.03972
LeftFoot  -4.52268 0.335622 -5.17951
LeftToes  4.18335e-011 1.59304e-011 3.38507e-012
2104
root  43.8829 39.9733 -22.2279 -2.72241 -11.714 3.53168
RightUpLeg  -14.6413 3.61876 -8.52299
RightLeg  52.9342 5.91521 8.03667
RightFoot  1.55928 -1.53632 13.6484
RightToes  -4.65663e-010 0 -3.6325e-017
Spine  3.95958 -1.64379 -7.45191
Spine1  4.66598 -2.73427 2.08481
HEad  22.5536 -16.2954 -1.30204
LeftShoulder1  6.87855 -9.96683 -44.456
LeftArm  -7.80643 24.3721 -20.9
LeftForeArm  21.1554 -17.2272 -4.13981
LeftHand  -0.244104 0.0205437 5.32207
RightShoulder  5.04536 7.99349 37.8433
RightArm  4.716 -22.0118 32.0751
RightForeArm  0.0782627 22.6692 4.94046
RightHand  -0.722877 -0.0591581 -15.7587
LeftUpLeg  -2.63093 7.41692 2.62315
LeftLeg  9.74897 10.8037 -4.433
LeftFoot  -4.79431 0.340355 -5.44469
LeftToes  4.18335e-011 1.59304e-011 3.38507e-012
2105
root  44.1575 40.1223 -21.6418 -2.59058 -15.1543 2.68884
RightUpLeg  -17.4066 -0.0616272 -6.9203
RightLeg  50.4263 2.43229 2.81998
RightFoot  0.378943 -1.00369 9.82174
RightToes  -4.65663e-010 0 -3.6325e-017
Spine  4.29073 -1.77531 -6.68883
Spine1  4.38843 -2.78045 2.19104
HEad  22.4659 -15.8904 -0.666222
LeftShoulder1  6.85465 -9.98165 -44.2431
LeftArm  -9.19436 22.5615 -20.7499
LeftForeArm  20.8209 -16.8574 -4.08102
LeftHand  -0.244104 0.0205437 5.32207
RightShoulder  5.06806 8.00144 38.0041
RightArm  3.80137 -22.32 33.1186
RightForeArm  0.728274 23.6086 5.00457
RightHand  -0.694736 -0.430262 -16.2407
LeftUpLeg  -0.511544 7.62177 3.26897
LeftLeg  8.07494 13.658 -4.65626
LeftFoot  -5.08684 0.320948 -5.31108
LeftToes  4.18335e-011 1.59304e-011 3.38507e-012
2106
root  44.3781 40.1922 -21.0695 -2.42957 -18.3987 2.12457
RightUpLeg  -19.2978 -4.19883 -5.04786
RightLeg  45.6162 1.09336 0.862432
RightFoot  0.0671639 -0.841151 8.41463
RightToes  -4.65663e-010 0 -3.6325e-017
Spine  4.83982 -1.88754 -6.31693
Spine1  3.90813 -2.85401 2.26708
HEad  22.4779 -15.8132 0.409379
LeftShoulder1  6.81513 -9.94031 -44.1172
LeftArm  -10.3439 21.0614 -20.4868
LeftForeArm  19.6557 -17.4413 -3.94985
LeftHand  -0.244104 0.0205437 5.32207
RightShoulder  5.08523 8.01564 38.0953
RightArm  3.61696 -22.5319 34.0759
RightForeArm  0.329257 23.7074 5.05243
RightHand  -0.654541 -0.653833 -16.0065
LeftUpLeg  1.173 7.96532 3.55774
LeftLeg  7.06941 16.3781 -4.78746
LeftFoot  -5.84384 0.289954 -5.31698
LeftToes  4.18335e-011 1.59304e-011 3.38507e-012
2107
root  44.5314 40.2022 -20.4861 -2.25635 -21.1019 1.77991
RightUpLeg  -20.3805 -9.21821 -2.81414
RightLeg  38.9459 1.60076 1.0952
RightFoot  -0.23002 -0.756153 7.74513
RightToes  -4.65663e-010 0 -3.6325e-017
Spine  5.37137 -2.11564 -6.53653
Spine1  3.47779 -3.15991 2.81645
HEad  22.3429 -16.0176 1.70855
LeftShoulder1  6.8384 -9.98018 -44.1382
LeftArm  -10.7521 19.9158 -19.9889
LeftForeArm  18.6434 -18.9335 -3.84863
LeftHand  -0.244104 0.0205437 5.32207
RightShoulder  5.06137 7.96134 38.096
RightArm  4.51001 -22.4906 34.8478
RightForeArm  0.38027 23.1806 4.97386
RightHand  -0.614013 -0.731991 -15.268
LeftUpLeg  2.64381 8.15516 3.58057
LeftLeg  6.29288 18.7104 -4.97532
LeftFoot  -6.82057 0.266436 -5.71121
LeftToes  4.18335e-011 1.59304e-011 3.38507e-012
2108
root  44.6198 40.1731 -19.879 -1.97241 -23.4773 1.62769
RightUpLeg  -21.085 -15.281 -0.0445927
RightLeg  31.0085 2.90301 1.64581
RightFoot  -0.444308 -0.663082 6.91268
RightToes  -4.65663e-010 0 -3.6325e-017
Spine  5.4512 -2.39546 -7.02288
Spine1  3.42724 -3.54515 3.51236
HEad  21.9573 -16.3977 2.97241
LeftShoulder1  6.90686 -10.0956 -44.2062
LeftArm  -11.1721 18.83 -19.4363
LeftForeArm  18.5984 -20.6571 -3.80033
LeftHand  -0.244104 0.0205437 5.32207
RightShoulder  5.03543 7.89471 38.1252
RightArm  5.76542 -22.2754 35.2985
RightForeArm  1.21015 22.3635 4.90174
RightHand  -0.587521 -0.784582 -14.7752
LeftUpLeg  3.79234 8.04181 3.20708
LeftLeg  5.67027 21.0406 -4.98444
LeftFoot  -7.59454 0.234322 -5.75964
LeftToes  4.18335e-011 1.59304e-011 3.38507e-012
2109
root  44.6458 40.1222 -19.2449 -1.64246 -25.8448 1.73944
RightUpLeg  -21.8318 -23.0958 3.72889
RightLeg  22.4743 4.29654 1.41027
RightFoot  -0.349527 -0.561418 5.8048
RightToes  -4.65663e-010 0 -3.6325e-017
Spine  5.04408 -2.63155 -7.61702
Spine1  3.72414 -3.86147 4.11159
HEad  21.4821 -16.7629 4.01459
LeftShoulder1  6.95567 -10.1873 -44.2218
LeftArm  -12.1594 17.7284 -19.0618
LeftForeArm  19.265 -22.157 -3.83431
LeftHand  -0.244104 0.0205437 5.32207
RightShoulder  5.06212 7.91145 38.2874
RightArm  6.61347 -22.0839 35.3812
RightForeArm  1.97292 21.4981 4.94338
RightHand  -0.587682 -0.822671 -14.896
LeftUpLeg  4.70675 7.65357 2.39698
LeftLeg  5.15685 23.7981 -4.79911
LeftFoot  -8.23866 0.195743 -5.4033
LeftToes  4.18335e-011 1.59304e-011 3.38507e-012
2110
root  44.599 40.0587 -18.5851 -1.48877 -28.2435 2.07947
RightUpLeg  -21.4958 -27.5411 6.12782
RightLeg  13.6407 -0.133383 1.97839
RightFoot  -0.0935443 -0.472833 4.79589
RightToes  -4.65663e-010 0 -3.6325e-017
Spine  4.55885 -2.77644 -8.28273
Spine1  4.03044 -4.09581 4.74534
HEad  21.2362 -17.08 4.74206
LeftShoulder1  6.96535 -10.2373 -44.1178
LeftArm  -13.2354 16.8469 -18.933
LeftForeArm  19.7997 -23.4081 -3.97607
LeftHand  -0.244104 0.0205437 5.32207
RightShoulder  5.11794 7.9823 38.4915
RightArm  6.63339 -22.1366 35.2995
RightForeArm  2.38606 20.536 5.11074
RightHand  -0.6232 -0.688139 -15.3523
LeftUpLeg  5.88585 7.25573 1.4578
LeftLeg  4.36453 26.5841 -4.89848
LeftFoot  -8.97544 0.165388 -5.418
LeftToes  4.18335e-011 1.59304e-011 3.38507e-012
